<?xml version="1.0" encoding="UTF-8"?>
<svg xmlns="http://www.w3.org/2000/svg" viewBox="0 0 1417.32 1195.27">
  <defs>
    <style>
      .cls-1, .cls-2, .cls-3, .cls-4, .cls-5, .cls-6, .cls-7, .cls-8 {
        fill: none;
        stroke-miterlimit: 10;
      }

      .cls-1, .cls-2, .cls-7, .cls-8 {
        stroke: #262262;
      }

      .cls-1, .cls-5 {
        stroke-width: 15px;
      }

      .cls-2, .cls-6 {
        stroke-width: 19px;
      }

      .cls-9 {
        letter-spacing: -.03em;
      }

      .cls-3, .cls-4, .cls-5, .cls-6 {
        stroke: #fff;
      }

      .cls-3, .cls-8 {
        stroke-width: 7px;
      }

      .cls-10 {
        letter-spacing: -.02em;
      }

      .cls-4, .cls-7 {
        stroke-width: 17px;
      }

      .cls-11 {
        letter-spacing: -.05em;
      }

      .cls-12 {
        letter-spacing: -.04em;
      }

      .cls-13 {
        stroke-width: 0px;
      }

      .cls-13, .cls-14 {
        fill: #262262;
      }

      .cls-15 {
        letter-spacing: -.06em;
      }

      .cls-16 {
        letter-spacing: -.04em;
      }

      .cls-17 {
        letter-spacing: -.02em;
      }

      .cls-18 {
        letter-spacing: -.02em;
      }

      .cls-14, .cls-19 {
        font-family: Bahnschrift, Bahnschrift;
        font-size: 185px;
        font-variation-settings: 'wght' 400, 'wdth' 100;
      }

      .cls-19 {
        fill: #fefeff;
      }
    </style>
  </defs>
  <g id="Layer_5" data-name="Layer 5">
    <rect class="cls-13" y="472.29" width="1417.32" height="722.98"/>
  </g>
  <g id="Layer_2" data-name="Layer 2">
    <text/>
    <text class="cls-19" transform="translate(496.69 880.16)"><tspan class="cls-15" x="0" y="0">o</tspan><tspan class="cls-9" x="90.25" y="0">l</tspan><tspan class="cls-16" x="139.02" y="0">s</tspan><tspan class="cls-11" x="227.06" y="0">h</tspan><tspan class="cls-12" x="321.94" y="0">a</tspan><tspan class="cls-10" x="412.19" y="0">t</tspan><tspan class="cls-18" x="468.5" y="0">y</tspan><tspan class="cls-17" x="553.32" y="0">r</tspan></text>
    <path class="cls-4" d="M364.51,755.54c-3.06,10.52-8.19,24.23-17.05,38.9-9.94,16.46-21.07,28.33-29.72,36.22,3.29,8.36,6.43,17.96,8.92,28.73,5.07,21.92,5.75,41.41,5.01,56.57,8.87-1.59,22.08-2.88,37.7-.42,19.94,3.14,34.69,10.95,43.12,16.29,5.06-10.82,13.53-25.77,27.42-40.77,15.7-16.94,32.01-27.14,43.25-32.99-2.17-11.48-3.93-27.19-2.46-45.71,1.39-17.41,5.2-31.86,8.86-42.51"/>
    <path class="cls-5" d="M531.91,910.14c6.34,7.9,5.36,19.4-1.92,25.91-7.64,6.84-19.9,6.12-26.87-1.92l-120.94-124.18"/>
    <path class="cls-3" d="M491.83,771.69c-12.01-.8-28.63-.52-47.59,4.19-29.85,7.41-50.74,22.12-62.05,31.5,17.08,5.21,37.19,12.82,58.69,24.17,16.45,8.68,30.53,17.86,42.29,26.52"/>
    <path class="cls-3" d="M412.33,930.89c-8.62-10.7-23.7-32.4-30-63.83-4.86-24.22-2.57-44.59-.15-57.11"/>
    <path class="cls-3" d="M317.74,833.18c7.24-5.36,16.77-11.42,28.6-16.63,13.71-6.05,26.18-9.06,35.85-10.63-9.53,8.7-24.51,24.62-35.85,48.95-12.04,25.83-14.26,50.2-14.67,63.61"/>
    <path class="cls-6" d="M357.68,757c8.26-.42,18.14-1.69,28.98-4.73,22.44-6.3,38.75-17.32,48.72-25.43,7.06,7.77,15.62,16.24,25.84,24.76,10.83,9.02,21.26,16.21,30.6,21.9"/>
    <path class="cls-3" d="M435.38,726.84c-8.79,8.12-19.27,19.32-29.16,34.04-11.65,17.33-18.58,33.74-22.79,46.29-1.98-2.56-11.61-14.85-15.41-28.72-2.74-10.01-3.36-16.97-3.52-22.91"/>
    <text/>
    <text class="cls-14" transform="translate(496.69 166.37)"><tspan class="cls-15" x="0" y="0">o</tspan><tspan class="cls-9" x="90.25" y="0">l</tspan><tspan class="cls-16" x="139.02" y="0">s</tspan><tspan class="cls-11" x="227.06" y="0">h</tspan><tspan class="cls-12" x="321.94" y="0">a</tspan><tspan class="cls-10" x="412.19" y="0">t</tspan><tspan class="cls-18" x="468.5" y="0">y</tspan><tspan class="cls-17" x="553.32" y="0">r</tspan></text>
    <path class="cls-7" d="M364.51,41.75c-3.06,10.52-8.19,24.23-17.05,38.9-9.94,16.46-21.07,28.33-29.72,36.22,3.29,8.36,6.43,17.96,8.92,28.73,5.07,21.92,5.75,41.41,5.01,56.57,8.87-1.59,22.08-2.88,37.7-.42,19.94,3.14,34.69,10.95,43.12,16.29,5.06-10.82,13.53-25.77,27.42-40.77,15.7-16.94,32.01-27.14,43.25-32.99-2.17-11.48-3.93-27.19-2.46-45.71,1.39-17.41,5.2-31.86,8.86-42.51"/>
    <path class="cls-1" d="M531.91,196.35c6.34,7.9,5.36,19.4-1.92,25.91-7.64,6.84-19.9,6.12-26.87-1.92l-120.94-124.18"/>
    <path class="cls-8" d="M491.83,57.9c-12.01-.8-28.63-.52-47.59,4.19-29.85,7.41-50.74,22.12-62.05,31.5,17.08,5.21,37.19,12.82,58.69,24.17,16.45,8.68,30.53,17.86,42.29,26.52"/>
    <path class="cls-8" d="M412.33,217.1c-8.62-10.7-23.7-32.4-30-63.83-4.86-24.22-2.57-44.59-.15-57.11"/>
    <path class="cls-8" d="M317.74,119.39c7.24-5.36,16.77-11.42,28.6-16.63,13.71-6.05,26.18-9.06,35.85-10.63-9.53,8.7-24.51,24.62-35.85,48.95-12.04,25.83-14.26,50.2-14.67,63.61"/>
    <path class="cls-2" d="M357.68,43.21c8.26-.42,18.14-1.69,28.98-4.73,22.44-6.3,38.75-17.32,48.72-25.43,7.06,7.77,15.62,16.24,25.84,24.76,10.83,9.02,21.26,16.21,30.6,21.9"/>
    <path class="cls-8" d="M435.38,13.05c-8.79,8.12-19.27,19.32-29.16,34.04-11.65,17.33-18.58,33.74-22.79,46.29-1.98-2.56-11.61-14.85-15.41-28.72-2.74-10.01-3.36-16.97-3.52-22.91"/>
  </g>
</svg>